<mxfile host="app.diagrams.net" modified="2024-03-28T15:51:22.389Z" agent="Mozilla/5.0 (Macintosh; Intel Mac OS X 10_15_7) AppleWebKit/537.36 (KHTML, like Gecko) Chrome/123.0.0.0 Safari/537.36" version="24.2.1" etag="klFF1H54xUVND0TefW1O" type="github">
  <diagram name="第 1 页" id="oFJdz_Z9gcJ0JQ7Jm2M6">
    <mxGraphModel>
      <root>
        <mxCell id="0" />
        <mxCell id="1" parent="0" />
      </root>
    </mxGraphModel>
  </diagram>
</mxfile>
